:version 1.10
:name ASF
:units
  mass 1
  length 1
  angle deg
:documentation
  ASF file generated by Kaydara
:root
  axis xyz
  order  tx ty tz rx ry rz
  position 0 0 0
  orientation 0 0 0
:bonedata
  begin
    id 1
    name RightUpLegDummy
    direction -0.718183 -0.695806 0.00816078
    length 4.904
    axis 0 0 0 xyz
  end
  begin
    id 2
    name RightUpLeg
    direction 3.53989e-006 -0.995788 0.0916897
    length 17.4976
    axis -3.49089 -0.000906621 0.000287158 xyz
    dof rx ry rz
  end
  begin
    id 3
    name RightLeg
    direction 0.00371093 -0.995096 -0.0988418
    length 16.5821
    axis 3.68512 0.0193738 -0.131023 xyz
    dof rx ry rz
  end
  begin
    id 4
    name RightFoot
    direction 0.000791514 -0.46099 0.887405
    length 3.77069
    axis 4.84075e-005 -0.120479 -0.188788 xyz
    dof rx ry rz
  end
  begin
    id 5
    name RightToes
    direction 0.00124746 -0.014064 0.9999
    length 3.85082
    axis 0.00048216 0.542163 -0.142577 xyz
    dof rx ry rz
  end
  begin
    id 6
    name SpineDummy
    direction 8.3039e-015 1 4.57515e-016
    length 4.6813
    axis 0 0 0 xyz
  end
  begin
    id 7
    name Spine
    direction -4.63632e-008 0.999988 0.00495137
    length 10.1015
    axis -0.00138897 0.000121419 3.25764e-006 xyz
    dof rx ry rz
  end
  begin
    id 8
    name Spine1
    direction 0 0 0
    length 0
    axis -0.00138896 0.000121452 2.39764e-006 xyz
    dof rx ry rz
  end
  begin
    id 9
    name HEadDummy
    direction -3.91456e-008 0.999999 0.00127422
    length 3.43865
    axis -0.00138896 0.000121452 2.39764e-006 xyz
  end
  begin
    id 10
    name HEad
    direction -0.0222688 0.980941 0.193023
    length 5.12695
    axis -0.00138895 0.000121452 2.39764e-006 xyz
    dof rx ry rz
  end
  begin
    id 11
    name LeftShoulder1Dummy
    direction 0.998891 -0.0402508 -0.0244456
    length 3.5433
    axis -0.00138896 0.000121452 2.39764e-006 xyz
  end
  begin
    id 12
    name LeftShoulder1
    direction 0.99951 -0.000327743 0.0313091
    length 4.05031
    axis -0.00138896 0.000121452 2.39764e-006 xyz
    dof rx ry rz
  end
  begin
    id 13
    name LeftArm
    direction 0.998561 -0.00100054 -0.0536182
    length 10.3537
    axis -23.1894 0.134784 0.96751 xyz
    dof rx ry rz
  end
  begin
    id 14
    name LeftForeArm
    direction 0.998903 0.00866434 0.046012
    length 8.70632
    axis -9.91835 -0.06569 -0.177792 xyz
    dof rx ry rz
  end
  begin
    id 15
    name LeftHand
    direction 0.992938 -0.0411636 0.11126
    length 5.32135
    axis -0.00960227 -0.00340091 0.185174 xyz
    dof rx ry rz
  end
  begin
    id 16
    name RightShoulderDummy
    direction -0.998891 -0.0402509 -0.0244414
    length 3.5433
    axis -0.00138896 0.000121452 2.39764e-006 xyz
  end
  begin
    id 17
    name RightShoulder
    direction -0.99951 -0.000327827 0.0313133
    length 4.05031
    axis 0.215806 0.000203644 -0.00680151 xyz
    dof rx ry rz
  end
  begin
    id 18
    name RightArm
    direction -0.998573 -0.000999583 -0.053403
    length 10.3947
    axis -23.2009 -0.134239 -0.9641 xyz
    dof rx ry rz
  end
  begin
    id 19
    name RightForeArm
    direction -0.998898 0.00868026 0.0461306
    length 8.68355
    axis -9.92322 0.0658061 0.178869 xyz
    dof rx ry rz
  end
  begin
    id 20
    name RightHand
    direction -0.992843 -0.0414603 0.112003
    length 5.28593
    axis -0.00960634 0.00330671 -0.185226 xyz
    dof rx ry rz
  end
  begin
    id 21
    name LeftUpLegDummy
    direction 0.718183 -0.695806 0.00816078
    length 4.904
    axis 0 0 0 xyz
  end
  begin
    id 22
    name LeftUpLeg
    direction -6.8115e-006 -0.995793 0.0916336
    length 17.4976
    axis -3.48766 0.00143441 -0.000523914 xyz
    dof rx ry rz
  end
  begin
    id 23
    name LeftLeg
    direction -0.00601357 -0.995091 -0.0987824
    length 16.5821
    axis 3.68177 -0.00654038 -0.00028478 xyz
    dof rx ry rz
  end
  begin
    id 24
    name LeftFoot
    direction -0.00417578 -0.460984 0.887399
    length 3.77069
    axis 1.87232e-006 4.66002e-005 -8.1837e-006 xyz
    dof rx ry rz
  end
  begin
    id 25
    name LeftToes
    direction 0.00818058 -0.00485161 0.999955
    length 3.85048
    axis 1.06246e-005 4.65855e-005 -8.18502e-006 xyz
    dof rx ry rz
  end
:hierarchy
  begin
    root RightUpLegDummy SpineDummy LeftUpLegDummy
    RightUpLegDummy RightUpLeg
    RightUpLeg RightLeg
    RightLeg RightFoot
    RightFoot RightToes
    SpineDummy Spine
    Spine Spine1
    Spine1 HEadDummy LeftShoulder1Dummy RightShoulderDummy
    HEadDummy HEad
    LeftShoulder1Dummy LeftShoulder1
    LeftShoulder1 LeftArm
    LeftArm LeftForeArm
    LeftForeArm LeftHand
    RightShoulderDummy RightShoulder
    RightShoulder RightArm
    RightArm RightForeArm
    RightForeArm RightHand
    LeftUpLegDummy LeftUpLeg
    LeftUpLeg LeftLeg
    LeftLeg LeftFoot
    LeftFoot LeftToes
  end

:SAMPLES-PER-SECOND 30
:FRAME-RANGE 1-3358
:FULLY-SPECIFIED
:DEGREES
1
root  -26.5219 39.9687 -38.8715 1.66499 52.0597 1.05708
RightUpLeg  -2.84318 -5.84314 -1.33469
RightLeg  12.991 -5.53703 -0.664106
RightFoot  -9.46341 -0.0945805 1.77086
RightToes  -1.11029e-010 1.2921e-014 -6.02303e-014
Spine  -13.8778 -2.81486 3.06839
Spine1  15.277 -3.43841 0.530164
HEad  15.9198 4.88854 1.62136
LeftShoulder1  2.14003 -4.32658 -21.9652
LeftArm  -5.4942 -2.54814 -55.5371
LeftForeArm  38.3702 1.49668 -11.2565
LeftHand  -0.0304859 5.12107 3.90627
RightShoulder  1.75457 2.70655 23.0123
RightArm  2.99634 19.9428 45.0636
RightForeArm  50.4904 70.889 27.3065
RightHand  -0.00730047 -6.58487 -2.51102
LeftUpLeg  -3.15172 1.26412 -0.0739757
LeftLeg  12.1708 12.8759 3.94133
LeftFoot  -7.71234 0.177581 -4.12893
LeftToes  -1.90334e-010 -8.83595e-011 4.99953e-011
2
root  -26.464 39.9886 -38.8975 1.30963 51.4623 0.869868
RightUpLeg  -2.44168 -5.79175 -1.38129
RightLeg  12.5945 -5.04526 -0.468988
RightFoot  -9.26759 -0.0958335 1.7903
RightToes  -1.11029e-010 1.2921e-014 -6.02303e-014
Spine  -14.1686 -2.67183 3.09104
Spine1  15.0795 -3.22092 0.286089
HEad  16.9818 4.61298 1.40337
LeftShoulder1  2.07707 -4.12446 -21.8745
LeftArm  -5.72448 -1.22281 -54.6088
LeftForeArm  37.847 1.82805 -11.2275
LeftHand  -0.0327831 5.11836 3.73964
RightShoulder  1.73861 2.90526 21.7478
RightArm  2.75954 25.5038 46.7511
RightForeArm  64.078 76.8701 43.8146
RightHand  -0.00145978 -7.11052 -2.33238
LeftUpLeg  -2.63735 1.09028 -0.160701
LeftLeg  11.843 13.6436 4.16498
LeftFoot  -7.6201 0.185989 -4.25993
LeftToes  -1.90334e-010 -8.83595e-011 4.99953e-011
3
root  -26.4246 40.0095 -38.9217 1.14236 51.0536 0.77245
RightUpLeg  -2.17916 -5.73612 -1.42345
RightLeg  12.2086 -4.70371 -0.345948
RightFoot  -9.07557 -0.0961194 1.79474
RightToes  -1.11029e-010 1.2921e-014 -6.02303e-014
Spine  -14.461 -2.5005 2.83417
Spine1  14.9411 -3.04793 0.338527
HEad  18.0911 4.10774 1.27253
LeftShoulder1  2.06907 -4.13595 -21.7142
LeftArm  -5.774 -0.0189537 -53.8708
LeftForeArm  37.7907 2.73445 -11.2647
LeftHand  -0.0318361 5.15405 3.76689
RightShoulder  1.72944 3.23928 20.0723
RightArm  2.13045 30.5693 48.8175
RightForeArm  86.2533 80.0578 69.8502
RightHand  0.00691528 -7.38456 -2.56312
LeftUpLeg  -2.28494 1.11277 -0.247875
LeftLeg  11.481 14.0502 4.26853
LeftFoot  -7.51652 0.188815 -4.30396
LeftToes  -1.90334e-010 -8.83595e-011 4.99953e-011
4
root  -26.3988 40.0219 -38.9554 1.07169 50.772 0.757982
RightUpLeg  -2.09951 -5.96759 -1.54011
RightLeg  12.106 -4.21346 -0.212447
RightFoot  -8.98105 -0.0931994 1.74944
RightToes  -1.11029e-010 1.2921e-014 -6.02303e-014
Spine  -14.6088 -2.27327 2.6635
Spine1  14.7946 -2.78073 0.21549
HEad  18.861 3.37626 1.32569
LeftShoulder1  2.06578 -4.14832 -21.618
LeftArm  -5.45726 0.931986 -53.0967
LeftForeArm  37.9833 3.90211 -11.4412
LeftHand  -0.02956 5.23154 3.3223
RightShoulder  1.71887 3.58131 18.4955
RightArm  1.44923 35.1497 50.8837
RightForeArm  112.527 80.3774 99.5344
RightHand  0.0238372 -7.60219 -3.21118
LeftUpLeg  -2.01297 1.44023 -0.304592
LeftLeg  11.1047 14.0423 4.19414
LeftFoot  -7.44446 0.186174 -4.15936
LeftToes  -1.90334e-010 -8.83595e-011 4.99953e-011
5
root  -26.3774 40.0293 -39.0047 1.09875 50.8276 0.875553
RightUpLeg  -2.02614 -6.38419 -1.77255
RightLeg  12.078 -3.82622 -0.108775
RightFoot  -8.98342 -0.0920199 1.73113
RightToes  -1.11029e-010 1.2921e-014 -6.02303e-014
Spine  -14.8141 -2.18591 2.59879
Spine1  14.9102 -2.57235 -0.269167
HEad  19.2047 2.48398 1.54419
LeftShoulder1  2.06181 -4.12792 -21.6421
LeftArm  -5.23169 1.6918 -52.1259
LeftForeArm  38.2994 5.22488 -11.5828
LeftHand  -0.0217445 5.52875 3.66526
RightShoulder  1.70152 3.83614 17.2685
RightArm  1.16139 39.2208 53.2347
RightForeArm  130.896 78.954 120.11
RightHand  0.0199768 -7.62096 -3.00258
LeftUpLeg  -1.80268 1.73621 -0.433877
LeftLeg  10.7425 13.7209 4.03622
LeftFoot  -7.39263 0.182801 -4.01589
LeftToes  -1.90334e-010 -8.83595e-011 4.99953e-011
6
root  -26.3562 40.0357 -39.0677 1.21906 51.1267 0.993069
RightUpLeg  -2.03428 -6.71356 -1.97982
RightLeg  12.0311 -3.79007 -0.0761952
RightFoot  -8.95886 -0.101573 1.87935
RightToes  -1.11029e-010 1.2921e-014 -6.02303e-014
Spine  -14.9496 -2.15831 2.42626
Spine1  14.9118 -2.4719 -0.536947
HEad  19.5832 1.30726 1.59287
LeftShoulder1  2.06335 -4.06685 -21.9087
LeftArm  -5.24281 2.46883 -51.0355
LeftForeArm  38.4673 6.49396 -11.6252
LeftHand  -0.0220717 5.60512 2.86653
RightShoulder  1.68121 4.0324 16.2741
RightArm  1.30385 42.8202 55.3866
RightForeArm  141.707 77.1856 131.827
RightHand  0.0230856 -7.67343 -3.09828
LeftUpLeg  -1.71713 1.82295 -0.616191
LeftLeg  10.3653 13.3837 3.91425
LeftFoot  -7.33341 0.175794 -3.76635
LeftToes  -1.90334e-010 -8.83595e-011 4.99953e-011
7
root  -26.3187 40.0504 -39.1298 1.24124 51.6098 0.993695
RightUpLeg  -1.89162 -6.96201 -2.14261
RightLeg  11.8107 -3.98688 -0.012303
RightFoot  -8.87241 -0.10027 1.85914
RightToes  -1.11029e-010 1.2921e-014 -6.02303e-014
Spine  -15.2301 -2.12037 2.40514
Spine1  15.1781 -2.33024 -0.939312
HEad  19.8454 -0.0829622 1.76137
LeftShoulder1  2.08362 -4.13474 -21.9271
LeftArm  -5.62105 3.44663 -50.3207
LeftForeArm  38.5394 7.54901 -11.5449
LeftHand  -0.0254035 5.63527 1.64891
RightShoulder  1.65708 4.13573 15.5718
RightArm  1.81076 45.7273 57.1581
RightForeArm  148.126 75.5608 138.742
RightHand  0.027392 -7.81209 -3.15616
LeftUpLeg  -1.57997 1.79239 -0.766058
LeftLeg  9.90079 12.993 3.82501
LeftFoot  -7.25242 0.165268 -3.41033
LeftToes  -1.90334e-010 -8.83595e-011 4.99953e-011
8
root  -26.2635 40.0679 -39.1834 1.23605 52.2467 0.946213
RightUpLeg  -1.56701 -6.88055 -2.24845
RightLeg  11.3024 -4.65626 -0.00310018
RightFoot  -8.74406 -0.107766 2.13555
RightToes  -1.11029e-010 1.2921e-014 -6.02303e-014
Spine  -15.4229 -2.07581 2.30004
Spine1  15.2671 -2.23708 -1.07105
HEad  20.2282 -1.48245 1.9114
LeftShoulder1  2.07937 -4.09671 -22.0189
LeftArm  -5.52754 4.57051 -49.5968
LeftForeArm  38.1215 7.5882 -11.7447
LeftHand  -0.0243527 5.87521 1.4411
RightShoulder  1.63273 4.19487 15.023
RightArm  2.45651 47.4301 58.4344
RightForeArm  151.839 74.2562 142.891
RightHand  0.0339795 -7.83718 -3.42459
LeftUpLeg  -1.44132 1.81631 -0.840351
LeftLeg  9.43585 12.3918 3.65349
LeftFoot  -7.20338 0.159163 -3.20895
LeftToes  -1.90334e-010 -8.83595e-011 4.99953e-011
9
root  -26.1954 40.0829 -39.2429 1.44638 52.8957 1.01538
RightUpLeg  -1.34993 -7.0071 -2.49605
RightLeg  10.7961 -5.15363 0.125634
RightFoot  -8.6797 -0.113201 2.33617
RightToes  -1.11029e-010 1.2921e-014 -6.02303e-014
Spine  -15.8333 -1.98702 2.40881
Spine1  15.536 -2.00176 -1.58857
HEad  20.3238 -2.65105 2.24006
LeftShoulder1  2.03583 -3.98158 -21.8549
LeftArm  -5.72943 5.65063 -49.175
LeftForeArm  38.0909 7.59594 -11.7908
LeftHand  -0.0258985 5.91321 1.11999
RightShoulder  1.61254 4.1572 14.8451
RightArm  2.96612 48.4099 59.3011
RightForeArm  154.6 73.2287 145.656
RightHand  0.0321908 -7.75581 -3.43458
LeftUpLeg  -1.42695 1.83824 -0.985029
LeftLeg  8.98429 11.7486 3.43833
LeftFoot  -7.18638 0.155324 -3.09274
LeftToes  -1.90334e-010 -8.83595e-011 4.99953e-011
10
root  -26.1207 40.0905 -39.3131 1.54404 53.527 0.90113
RightUpLeg  -1.25935 -7.07426 -2.61853
RightLeg  10.4475 -5.61337 0.218447
RightFoot  -8.62357 -0.11355 2.31861
RightToes  -1.11029e-010 1.2921e-014 -6.02303e-014
Spine  -16.1771 -1.8969 2.66826
Spine1  15.7926 -1.80305 -2.06652
HEad  20.1337 -3.33643 2.52711
LeftShoulder1  1.94891 -3.67086 -21.852
LeftArm  -5.61909 6.71731 -48.6919
LeftForeArm  37.9593 7.61212 -11.8787
LeftHand  -0.0272581 6.02317 1.08319
RightShoulder  1.62213 4.23104 14.7539
RightArm  3.1869 48.6256 59.69
RightForeArm  156.519 72.3226 147.742
RightHand  0.0450342 -7.88349 -3.85802
LeftUpLeg  -1.57605 1.76795 -1.06491
LeftLeg  8.83567 11.2152 3.34636
LeftFoot  -7.31597 0.144948 -2.87494
LeftToes  -1.90334e-010 -8.83595e-011 4.99953e-011
11
root  -26.0355 40.0853 -39.3933 1.59712 54.0666 0.86412
RightUpLeg  -1.20333 -7.19 -2.7781
RightLeg  10.3814 -5.99637 0.190379
RightFoot  -8.63452 -0.125736 2.8396
RightToes  -1.11029e-010 1.2921e-014 -6.02303e-014
Spine  -15.8687 -1.70093 2.64734
Spine1  15.4186 -1.5804 -2.10159
HEad  19.8949 -3.70123 2.6492
LeftShoulder1  1.92411 -3.52774 -22.0877
LeftArm  -5.40771 7.94156 -48.1227
LeftForeArm  37.8555 7.62788 -11.9676
LeftHand  -0.0249713 6.11552 1.51514
RightShoulder  1.59599 4.08141 14.8406
RightArm  3.02566 48.33 59.6826
RightForeArm  158.101 71.469 149.488
RightHand  0.0514296 -7.9072 -4.10581
LeftUpLeg  -1.70637 1.65382 -1.21046
LeftLeg  8.90681 10.7943 3.28132
LeftFoot  -7.48375 0.134239 -2.65213
LeftToes  -1.90334e-010 -8.83595e-011 4.99953e-011
